<?xml version="1.0" encoding="UTF-8"?>
<!DOCTYPE svg PUBLIC "-//W3C//DTD SVG 1.1//EN" "http://www.w3.org/Graphics/SVG/1.1/DTD/svg11.dtd">
<!-- Creator: CorelDRAW -->
<svg xmlns="http://www.w3.org/2000/svg" xml:space="preserve" width="34.035mm" height="34.035mm" style="shape-rendering:geometricPrecision; text-rendering:geometricPrecision; image-rendering:optimizeQuality; fill-rule:evenodd; clip-rule:evenodd"
viewBox="0 0 9.81611 9.81611"
 xmlns:xlink="http://www.w3.org/1999/xlink">
 <defs>
  <style type="text/css">
   <![CDATA[
    .fil0 {fill:none}
    .fil2 {fill:black}
    .fil1 {fill:#0D7DB0}
   ]]>
  </style>
 </defs>
 <g id="Vrstva_x0020_1">
  <metadata id="CorelCorpID_0Corel-Layer"/>
  <rect class="fil0" width="9.81611" height="9.81611"/>
  <g id="_136040984">
   <path id="_136733984" class="fil1" d="M2.58746 0.853354l-0.0943685 6.87575c-0.752179,0.143225 -1.38695,0.46792 -1.94139,0.916776 1.02929,-0.389962 2.23381,-0.708715 4.74758,-0.100425 2.08415,0.504375 2.46973,0.19987 3.96509,0.137515 -3.12555,-0.0202465 -4.1985,-1.16282 -6.20504,-1.04823l-0.471871 -6.78138z"/>
   <path id="_135480200" class="fil2" d="M0.747189 8.9627c1.21906,-0.944982 2.61397,-0.529957 4.5521,-0.120008 -0.611838,0.132122 -1.45954,0.141091 -2.15905,-0.0282932 -0.859612,-0.208147 -1.683,-0.204484 -2.39304,0.148302z"/>
   <path id="_135479440" class="fil2" d="M3.1672 4.46649c3.59376,-1.69145 6.35585,0.185939 4.4962,2.15709 0.268829,-0.870486 -2.34747,0.443116 -4.09418,1.00846 2.01136,-1.07866 2.0753,-2.80622 -0.402018,-3.16555z"/>
   <path id="_136083600" class="fil2" d="M2.69564 2.4081c1.98976,-1.23155 3.80462,-0.297093 3.26485,0.873052 -0.136332,-0.616279 -1.51497,0.416986 -2.23029,0.722357 0.471756,-0.451567 0.690228,-1.34521 -1.03456,-1.59541z"/>
  </g>
 </g>
</svg>
